HIERARCHY
ROOT hip
{
	OFFSET	0.00  0.00  0.00 
	CHANNELS 6 Xposition Yposition Zposition Xrotation Zrotation Yrotation
	JOINT abdomen
	{
		OFFSET	0.000000 0.000000 0.000000
		CHANNELS 3 Xrotation Zrotation Yrotation
		JOINT chest
		{
			OFFSET	0.000000 4.862840 -1.823974
			CHANNELS 3 Xrotation Zrotation Yrotation
			JOINT neckDummy
			{
				OFFSET	0.000000 8.059053 0.760605
				CHANNELS 3 Xrotation Yrotation Zrotation
				JOINT neck
				{
					OFFSET	0.000000 2.209834 -0.380644
					CHANNELS 3 Xrotation Zrotation Yrotation
					JOINT head
					{
						OFFSET	0.000000 3.388650 0.513082
						CHANNELS 3 Xrotation Zrotation Yrotation
						End Site
						{
							OFFSET 0.000000 10.033302 0.000000
						}
					}
				}
			}
			JOINT lCollar
			{
				OFFSET	0.580691 8.059053 0.760605
				CHANNELS 3 Yrotation Zrotation Xrotation
				JOINT lShldr
				{
					OFFSET	6.222462 0.009832 -0.321848
					CHANNELS 3 Zrotation Yrotation Xrotation
					JOINT lForeArm
					{
						OFFSET	10.220657 0.024782 0.183730
						CHANNELS 3 Yrotation Zrotation Xrotation
						JOINT lHand
						{
							OFFSET	10.719483 0.309727 0.636712
							CHANNELS 3 Zrotation Yrotation Xrotation
							End Site
							{
								OFFSET 10.033305 0.000000 0.000000
							}
						}
					}
				}
			}
			JOINT rCollar
			{
				OFFSET	-0.580691 8.059053 0.760605
				CHANNELS 3 Yrotation Zrotation Xrotation
				JOINT rShldr
				{
					OFFSET	-6.222462 0.009832 -0.321848
					CHANNELS 3 Zrotation Yrotation Xrotation
					JOINT rForeArm
					{
						OFFSET	-10.220657 0.024782 0.183730
						CHANNELS 3 Yrotation Zrotation Xrotation
						JOINT rHand
						{
							OFFSET	-10.719483 0.309727 0.636712
							CHANNELS 3 Zrotation Yrotation Xrotation
							End Site
							{
								OFFSET -10.033305 0.000000 0.000000
							}
						}
					}
				}
			}
		}
	}
	JOINT lThigh
	{
		OFFSET	4.361177 -6.202389 -1.775974
		CHANNELS 3 Xrotation Zrotation Yrotation
		JOINT lShin
		{
			OFFSET	-1.317052 -18.333157 1.143369
			CHANNELS 3 Xrotation Zrotation Yrotation
			JOINT lFoot
			{
				OFFSET	-0.636132 -16.703447 -0.302338
				CHANNELS 3 Xrotation Yrotation Zrotation
				End Site
				{
					OFFSET 0.000000 -2.207327 5.819317
				}
			}
		}
	}
	JOINT rThigh
	{
		OFFSET	-4.361177 -6.202389 -1.775974
		CHANNELS 3 Xrotation Zrotation Yrotation
		JOINT rShin
		{
			OFFSET	1.317052 -18.333157 1.143369
			CHANNELS 3 Xrotation Zrotation Yrotation
			JOINT rFoot
			{
				OFFSET	0.636132 -16.703447 -0.302338
				CHANNELS 3 Xrotation Yrotation Zrotation
				End Site
				{
					OFFSET 0.000000 -2.207327 5.819317
				}
			}
		}
	}
}
MOTION
Frames:     12
Frame Time: 0.011111
9.696431 47.022400 7.122516 0.000000 0.000000 0.000000 19.309425 0.488461 0.284523 -19.307697 -0.555044 -0.106960 0.000000 0.000000 0.000000 -5.469451 1.731168 -0.347327 0.000000 0.000000 0.000000 2.424333 -4.683778 1.783845 13.662063 -32.157074 -0.833853 -25.613224 -1.647971 0.049003 8.524705 12.647240 -45.472057 -2.738486 -1.140572 2.095526 -7.891728 27.586811 -3.181987 25.603458 1.647971 0.048722 -8.534408 -12.637552 44.535015 4.215936 8.931241 2.962551 -0.118535 -5.950264 -0.672068 -4.998958 -0.519368 -3.239226 4.225248 -8.968494 -3.006058 -0.107302 5.940479 0.664368 -5.005407 0.504833 3.222483 
9.696431 47.022400 7.122516 -3.898234 9.391726 -64.926933 31.360878 8.214217 -2.711200 -20.772804 3.615664 -1.937874 0.000000 0.000000 0.000000 -10.933061 -9.515306 -10.408617 35.260704 18.124329 -19.742632 2.424333 -4.683778 1.783845 -70.276360 -40.544029 65.222900 -90.196098 5.954264 35.264805 8.524705 12.647240 14.400986 -2.738486 -1.140572 2.095526 61.192116 47.775764 14.679176 54.228054 -8.554146 9.902032 -8.534408 -12.637552 13.626811 -12.418613 4.763952 6.366406 38.643051 -4.773633 -5.933222 -20.057316 7.151071 -0.324260 -15.661907 -8.544656 21.365129 31.982498 5.199781 5.104114 -26.434505 -1.593703 1.367952 
9.633312 46.970295 7.179995 -3.862686 9.405558 -65.143814 31.570208 8.555424 -2.801929 -20.773424 3.808929 -2.020926 0.000000 0.000000 0.000000 -10.983325 -9.846657 -10.277658 35.058502 18.039162 -19.603186 2.424333 -4.683778 1.783845 -70.585648 -40.509613 65.278580 -90.112473 5.890740 35.213627 8.524705 12.647240 14.664657 -2.738486 -1.140572 2.095526 61.102074 48.196915 14.529920 54.069168 -8.525031 9.838506 -8.534408 -12.637552 13.558452 -12.625348 4.686774 5.370119 37.405571 -4.861227 -5.775114 -20.516407 6.757555 -0.362203 -15.754866 -8.466071 21.318493 32.231014 5.194550 5.114624 -26.497385 -1.418072 1.439746 
9.562405 46.968952 7.248486 -3.648006 9.361988 -65.343628 31.762770 9.234715 -3.000507 -20.794075 4.136643 -2.167422 0.000000 0.000000 0.000000 -11.127402 -10.316074 -9.993018 35.000130 17.769560 -19.249250 2.424333 -4.683778 1.783845 -71.202698 -40.391819 64.855682 -90.021049 5.819901 35.153446 8.524705 12.647240 14.488877 -2.738486 -1.140572 2.095526 60.892864 48.736786 14.501856 53.805733 -8.480398 9.730799 -8.534408 -12.637552 13.285013 -13.082889 4.783851 4.655820 36.671219 -4.919573 -5.690100 -20.946831 6.760901 -0.265149 -15.646791 -8.270774 21.203306 32.172997 5.184883 5.106844 -26.411419 -1.312014 1.512026 
9.499823 46.972446 7.316171 -3.549333 9.364213 -65.522202 32.016159 9.521514 -2.872792 -20.744967 4.089434 -2.172450 0.000000 0.000000 0.000000 -11.220450 -10.194563 -9.981306 34.795570 17.697872 -19.224485 2.424333 -4.683778 1.783845 -71.285561 -40.488098 64.906265 -89.936996 5.755586 35.092731 8.524705 12.647240 14.254503 -2.738486 -1.140572 2.095526 61.059181 49.174213 13.612531 53.553238 -8.437138 9.623579 -8.534408 -12.637552 13.314312 -13.486950 4.683435 3.949600 35.868092 -4.972491 -5.586432 -21.016956 7.110972 -0.136178 -15.616424 -8.221726 21.091160 32.161823 5.189302 5.126534 -26.226688 -1.254381 1.552140 
9.442612 46.963852 7.373113 -3.449970 9.430123 -65.852493 32.279930 9.194931 -1.956007 -20.644857 3.366790 -1.894695 0.000000 0.000000 0.000000 -11.138674 -9.005929 -10.563939 34.217625 17.804440 -20.049129 2.424333 -4.683778 1.783845 -70.387337 -40.923149 66.032234 -89.862122 5.697979 35.051910 8.524705 12.647240 14.313095 -2.738486 -1.140572 2.095526 61.852745 49.359215 11.338895 53.321098 -8.393784 9.529677 -8.534408 -12.637552 13.421732 -14.074788 4.636028 3.130513 35.183331 -5.017075 -5.500570 -21.423197 7.102721 -0.069049 -15.671608 -8.153895 21.182232 32.031998 5.199696 5.108430 -25.983007 -1.210151 1.594783 
9.368750 46.966270 7.419310 -3.253011 9.539268 -66.363724 32.343006 9.733103 -2.394160 -20.696365 4.161499 -2.092503 0.000000 0.000000 0.000000 -11.083632 -10.166114 -9.980836 34.179508 17.804501 -19.191147 2.424333 -4.683778 1.783845 -71.329597 -40.624100 65.167389 -89.804207 5.652213 35.011753 8.524705 12.647240 13.902940 -2.738486 -1.140572 2.095526 61.298237 49.962311 11.970634 52.984627 -8.331901 9.381581 -8.534408 -12.637552 13.968609 -14.727600 4.733150 2.499817 34.508575 -5.055922 -5.413538 -21.758156 7.128295 0.015902 -15.777944 -7.939023 21.476027 31.893448 5.199500 5.095338 -25.827608 -1.117702 1.668799 
9.291126 46.972176 7.468463 -3.050008 9.592875 -66.790695 32.538120 9.957466 -2.229082 -20.697676 4.513192 -2.091161 0.000000 0.000000 0.000000 -11.094350 -10.450249 -9.852958 34.059933 17.647030 -19.055283 2.424333 -4.683778 1.783845 -71.749992 -40.626690 65.192673 -89.721230 5.586639 34.952236 8.524705 12.647240 13.609971 -2.738486 -1.140572 2.095526 60.918381 50.269962 11.970218 52.742947 -8.287917 9.285935 -8.534408 -12.637552 14.769389 -15.298690 4.832563 1.846840 33.811993 -5.098873 -5.354687 -21.858156 7.278843 0.104607 -15.755280 -7.714559 21.770300 31.734238 5.214177 5.046517 -25.789076 -1.050757 1.702175 
9.223710 46.978355 7.533730 -2.892887 9.622738 -67.043236 32.772362 9.998058 -1.717024 -20.707081 4.388517 -1.981477 0.000000 0.000000 0.000000 -11.073638 -9.882305 -10.057105 33.705791 17.329428 -19.432417 2.424333 -4.683778 1.783845 -71.604607 -40.785469 65.785103 -89.656158 5.533704 34.911877 8.524705 12.647240 13.473251 -2.738486 -1.140572 2.095526 60.943123 50.406391 10.984432 52.574745 -8.255221 9.213466 -8.534408 -12.637552 14.974467 -15.841208 4.841191 1.139886 33.055260 -5.152728 -5.253632 -21.749052 7.429774 0.111425 -15.691214 -7.607172 21.810177 31.553480 5.229172 5.044600 -25.711355 -0.967886 1.746167 
9.150115 46.981850 7.606250 -2.776150 9.756219 -67.400543 32.904774 9.821870 -1.093971 -20.666895 4.071826 -1.795197 0.000000 0.000000 0.000000 -10.957517 -9.032160 -10.386847 33.300121 17.116928 -19.929068 2.424333 -4.683778 1.783845 -71.280266 -40.986355 66.510345 -89.605888 5.494211 34.872189 8.524705 12.647240 13.326768 -2.738486 -1.140572 2.095526 61.236599 50.607765 9.053846 52.311665 -8.201561 9.100141 -8.534408 -12.637552 14.740093 -16.419416 4.822063 0.563807 32.289158 -5.196338 -5.149414 -21.614569 7.363670 0.071763 -15.732861 -7.597272 21.848495 31.345407 5.234107 5.007352 -25.593996 -0.764722 1.858413 
9.055572 46.996616 7.717448 -2.942954 9.628551 -67.943710 33.386421 9.748629 -0.807216 -20.617880 4.035850 -1.722504 0.000000 0.000000 0.000000 -11.003818 -8.963976 -10.393955 33.265205 17.076223 -19.907724 2.424333 -4.683778 1.783845 -71.464478 -41.119980 66.748619 -89.556747 5.453877 34.832497 8.524705 12.647240 12.936143 -2.738486 -1.140572 2.095526 61.145950 50.980103 8.023633 51.996841 -8.140287 8.975702 -8.534408 -12.637552 14.642438 -16.443596 4.442886 -0.545002 31.431963 -5.245121 -5.047122 -21.960791 7.644814 0.248329 -15.391382 -7.792263 21.978899 31.135643 5.247978 4.982959 -25.589077 -0.348112 2.054777 
8.984663 47.007900 7.790504 -2.862779 9.753027 -68.192970 33.550171 9.964464 -0.863430 -20.628391 4.249228 -1.776900 0.000000 0.000000 0.000000 -11.050586 -9.188209 -10.223912 33.342861 17.111427 -19.634172 2.424333 -4.683778 1.783845 -71.778229 -41.231823 66.758408 -89.516846 5.420450 34.812569 8.524705 12.647240 12.438095 -2.738486 -1.140572 2.095526 60.957916 51.197380 8.838963 51.693001 -8.080321 8.851851 -8.534408 -12.637552 13.451031 -16.952600 4.169564 -1.966323 30.513266 -5.303553 -4.922112 -22.071344 8.309469 0.502267 -15.406758 -7.841592 22.051371 30.925543 5.263394 4.958166 -25.612518 -0.099085 2.162948 
